# xmcd
#
# Track frame offsets:
# 150
# 11733
# 29918
# 35738
# 45594
# 57538
# 71491
# 90077
# 99597
# 110906
# 120409
# 141609
# 150236
# 161282
# 167262
# 178864
# 211668
# 224579
# 232986
#
# Disc length: 3254 seconds
#
# Revision: 1
# Processed by: cddbd v1.5.2PL0 Copyright (c) Steve Scherf et al.
# Submitted via: CedeCatalogueitor 2.6.0.6 http://personales.ya.com/cdcatalogueitor
#
DISCID=050cb413
DTITLE=Joaquín Pascual - El Ritmo De Los Acontecimietnos
DYEAR=1900
DGENRE=
TTITLE0=Todos Los Días Tengo Un Accidente
TTITLE1=Viejo Cascarrabias
TTITLE2=Una Pena De Camisa
TTITLE3=Solo Te Pedí Un Cigarro
TTITLE4=Descansar
TTITLE5=Jugando Al Escondite
TTITLE6=Ella Me Atropelló
TTITLE7=La Unión Y La Fuerza
TTITLE8=Disfrutando De Lo Lindo
TTITLE9=Galán De Noche
TTITLE10=Ese Día En Que Todos Me Quieran A Mi
TTITLE11=De Paseo
TTITLE12=Nos Miramos A Los Ojos
TTITLE13=Debería Estar Bien Contento
TTITLE14=Colpaso Temportal
TTITLE15=El Movimiento De La Tierra
TTITLE16=Un Hombre Como Los Demás
TTITLE17=Nadie Quiere Pensar En Ello
TTITLE18=Carreteras Secundarias
EXTD=
EXTT0=
EXTT1=
EXTT2=
EXTT3=
EXTT4=
EXTT5=
EXTT6=
EXTT7=
EXTT8=
EXTT9=
EXTT10=
EXTT11=
EXTT12=
EXTT13=
EXTT14=
EXTT15=
EXTT16=
EXTT17=
EXTT18=
PLAYORDER=
